<svg width="201" height="273" viewBox="0 0 201 273" fill="none" xmlns="http://www.w3.org/2000/svg">
<path d="M0.138298 1.24468C0.276596 1.17553 30.9787 0.968085 68.4574 0.691489C105.936 0.484043 150.952 0.207447 200.532 0V272.447H0V136.915C0 62.3723 0.0691489 1.31383 0.138298 1.24468Z" fill="#292929"/>
<path d="M121.702 17.0106C125.712 15.9734 131.452 14.9362 134.494 14.5904C137.537 14.2447 143 14.1064 146.595 14.3138C150.191 14.4521 154.547 14.9362 156.276 15.3511C158.005 15.766 160.909 16.8723 162.845 17.8404C164.782 18.8085 167.202 20.1915 168.239 21.0213C169.345 21.8511 171.212 24.0638 172.457 25.9308C173.702 27.867 175.085 30.8404 175.5 32.7074C175.984 34.5053 176.329 37.2021 176.329 38.7234C176.329 40.2447 175.845 43.4947 174.255 50.4787L177.574 53.7979C179.372 55.5957 181.723 58.7766 182.76 60.8511C184.351 63.8936 184.696 65.6223 184.766 69.8404C184.904 73.8511 184.558 75.7872 183.313 78.484C182.484 80.4202 180.617 83.3245 179.234 85.0532C177.851 86.7128 174.808 89.4787 172.526 91.1383C170.244 92.7979 165.75 95.4947 162.5 97.1543C159.25 98.7447 154.271 100.957 151.436 101.926C148.601 102.963 143.76 104.415 140.718 105.176C137.675 105.936 133.042 106.973 130.345 107.457C127.649 108.011 123.154 108.702 120.319 108.979C116.032 109.394 113.68 110.223 106.835 113.473C102.271 115.686 94.6645 118.729 89.8932 120.319C85.122 121.84 79.3826 123.569 77.1007 124.122C74.8188 124.606 69.84 125.436 66.0368 125.92C62.2337 126.335 56.4943 126.543 53.2443 126.335C49.856 126.128 45.0847 125.229 41.8347 124.191C38.4464 123.085 34.9198 121.287 32.7071 119.628C30.0103 117.622 28.489 115.686 26.9677 112.574C25.6539 109.878 24.6858 106.628 24.4783 104.069C24.2017 101.372 24.4783 98.2606 26.2762 90.5851L22.7496 86.6436C20.8134 84.4308 18.3932 80.9043 17.4252 78.8298C15.973 75.7872 15.5581 73.9894 15.5581 70.1862C15.5581 66.4521 15.973 64.4468 17.356 61.5425C18.3241 59.4681 20.8826 55.9415 23.0262 53.7979C25.1698 51.5851 28.7656 48.6117 30.9092 47.2287C33.122 45.8457 37.4092 43.5638 40.4517 42.1117C43.4943 40.7287 48.473 38.7234 51.5156 37.6862C54.5581 36.6489 60.0209 35.1968 63.6166 34.5053C67.2124 33.7447 72.6751 32.6383 75.7177 32.1542C78.7603 31.6011 82.2177 31.117 83.3241 31.117C84.4305 31.117 87.5422 30.0106 90.239 28.6277C92.9358 27.2447 98.1911 24.8245 101.994 23.3032C105.797 21.8511 110.154 20.1915 111.675 19.7074C113.196 19.2234 117.691 17.9787 121.702 17.0106Z" fill="#141414"/>
<path d="M177.712 19.2234C178.819 18.5319 179.925 17.3564 180.202 16.5957C180.409 15.8351 180.686 15.2128 180.893 15.2128C181.032 15.2128 182.138 16.3191 183.244 17.633C184.351 18.9468 185.803 20.0532 186.356 20.0532C186.978 20.0532 185.941 21.367 184.143 23.1649C182.276 24.8936 180.824 26.2074 180.755 26.0691C180.755 26 180.202 25.1011 179.579 24.0638C178.957 22.9574 177.782 21.9894 177.021 21.7819C176.26 21.5745 175.638 21.2287 175.638 20.9521C175.638 20.6064 176.537 19.8457 177.712 19.2234Z" fill="#141414"/>
<path d="M16.1113 118.245C16.3879 118.245 17.0794 117.346 17.7017 116.239L18.8081 114.234L24.5475 119.835L19.3613 125.16L16.5954 122.255C14.59 120.112 14.0369 119.144 14.6592 118.798C15.1432 118.521 15.7656 118.245 16.1113 118.245Z" fill="#141414"/>
<path d="M14.8666 256.197C14.6592 255.644 14.5209 228.053 14.5209 195V134.84H29.5262C37.8241 134.84 45.4996 134.979 46.6752 135.186C47.7815 135.394 50.1326 136.707 51.7922 138.16C53.4517 139.543 55.3879 141.963 56.0794 143.484C57.2549 146.043 57.3241 149.777 57.3932 257.234H37.34L37.1326 206.41C37.0634 173.218 36.7177 155.516 36.3028 155.378C35.8188 155.309 35.473 172.734 35.1964 206.064C34.989 234 34.7124 256.957 34.6432 257.027C34.6432 257.165 30.2177 257.234 24.8932 257.234C16.872 257.234 15.1432 257.027 14.8666 256.197Z" fill="#141414"/>
<path d="M60.1592 257.234V195.968L60.2283 134.771L93.2124 135.186L96.1858 137.261C97.8454 138.436 99.989 140.787 102.686 145.559L102.824 200.324C102.962 230.473 102.893 255.644 102.686 256.197C102.409 257.027 100.75 257.234 82.6326 256.888V253.431C82.5642 251.517 82.4959 243.86 82.4275 236.203L82.4251 235.936C82.2868 224.043 82.1486 221.968 81.2496 221.968C80.3507 221.968 80.2124 224.388 80.2124 257.234H60.1592Z" fill="#141414"/>
<path d="M109.67 138.989C111.122 137.676 113.266 136.223 114.372 135.739C115.824 135.117 120.25 134.84 140.303 134.771V154.824H125.09L125.367 156.761C125.505 157.798 126.611 163.33 127.787 169C129.032 174.739 131.244 185.457 132.696 192.856C134.218 200.324 136.43 210.904 137.606 216.367C138.782 221.899 140.303 229.367 141.063 232.963C141.824 236.628 142.377 240.638 142.377 241.952C142.377 243.335 141.755 245.824 140.994 247.484C140.165 249.213 138.436 251.633 136.984 252.878C135.601 254.122 133.18 255.644 131.659 256.197C129.516 257.027 126.266 257.165 105.383 256.819V237.457L121.287 237.112L120.872 234.553C120.595 233.101 118.797 224.319 116.792 214.984C114.856 205.718 112.643 195.277 111.952 191.819C111.26 188.431 109.117 177.989 107.111 168.654C104.76 157.36 103.723 150.86 104 149.154C104.207 147.702 104.968 145.42 105.659 143.968C106.351 142.516 108.149 140.303 109.67 138.989Z" fill="#141414"/>
<path d="M143.069 257.165L143.138 195.968V134.702L176.191 135.117L179.165 137.261C180.824 138.436 182.968 140.718 185.595 145.489L185.941 257.165L166.234 257.234L165.75 250.457C165.473 246.723 165.196 238.84 165.196 232.824C165.196 223.628 165.058 221.899 164.159 221.899C163.26 221.899 163.122 224.319 163.122 257.165H143.069Z" fill="#141414"/>
<path d="M121.356 18.6702C124.399 17.9096 128.409 17.0106 130.346 16.6649C132.213 16.3191 137.606 16.0426 142.308 15.9734C146.941 15.9734 152.404 16.25 154.34 16.6649C156.346 17.1489 159.526 18.117 161.463 18.9468C163.33 19.7766 166.303 21.7128 167.963 23.234C169.622 24.6862 171.489 27.0372 172.181 28.3511C172.872 29.6649 173.771 32.5 174.186 34.5745C174.808 37.5479 174.808 39.4149 174.117 43.1489C173.633 45.7766 172.941 48.0585 172.526 48.1968C172.112 48.3351 169.484 47.0904 166.649 45.4308C163.814 43.7713 159.319 41.5585 156.622 40.4521C153.925 39.4149 150.053 38.0319 147.979 37.3404C145.904 36.6489 142.17 35.6117 139.681 35.0585C137.191 34.5053 133.319 33.6755 131.037 33.2606C128.755 32.7766 124.745 32.1543 122.048 31.8085C119.351 31.3936 111.261 30.9096 90.9307 30.2181L97.1541 27.3138C100.542 25.7234 106.213 23.3723 109.601 22.1968C112.989 20.9521 118.314 19.3617 121.356 18.6702Z" fill="#292929"/>
<path d="M89.6169 38.1011C91.1382 36.3723 93.2818 34.4362 94.3882 33.7447C95.4946 33.0532 97.1541 32.5 98.0531 32.5C99.5743 32.5 99.5743 32.6383 99.5743 49.7872H91.6222C86.7818 49.7872 83.6701 49.5106 83.6701 49.0957C83.6701 48.6809 84.4307 46.7447 85.3297 44.8085C86.2286 42.8032 88.1648 39.7606 89.6169 38.1011Z" fill="#292929"/>
<path d="M100.819 41.6277C100.75 37.133 100.957 33.1915 101.303 32.984C101.649 32.7074 102.34 32.5 102.963 32.5C103.585 32.5 105.314 33.3298 106.835 34.4362C108.356 35.4734 110.569 37.617 111.814 39.1383C112.989 40.5904 114.649 43.2872 115.409 45.1543C116.239 46.9521 116.862 48.6809 116.862 49.0957C116.862 49.5106 113.75 49.7872 100.957 49.7872L100.819 41.6277Z" fill="#292929"/>
<path d="M81.5956 36.0266C83.6701 35.0585 86.5052 34.0904 87.819 33.8138C89.1329 33.5372 90.4467 33.3298 90.7924 33.2606C91.069 33.2606 90.1701 34.5053 88.7871 36.1649C87.4733 37.7553 85.1914 41.4202 81.1116 49.4415L64.9999 49.7872L65.8297 48.266C66.2446 47.367 67.7658 45.6383 69.0797 44.3936C70.4626 43.1489 72.952 41.1436 74.6807 39.8989C76.4095 38.7234 79.5212 36.9947 81.5956 36.0266Z" fill="#292929"/>
<path d="M117.553 45.8457C116.654 43.633 114.441 39.8989 112.643 37.5479C110.846 35.1277 109.601 33.1915 109.808 33.1915C110.085 33.1915 112.298 33.8138 114.787 34.5053C117.276 35.266 121.149 36.9947 123.431 38.3777C125.713 39.7606 129.378 42.6649 131.59 44.8085C133.734 46.9521 135.532 48.9574 135.532 49.3032C135.532 49.5798 131.867 49.7872 119.282 49.7872L117.553 45.8457Z" fill="#292929"/>
<path d="M127.234 38.8617C124.745 37.133 122.463 35.4043 122.048 35.1277C121.633 34.7128 122.186 34.6436 123.431 34.9202C124.537 35.1968 127.995 36.1649 131.037 37.133C134.08 38.1011 138.436 39.8298 140.718 40.9362C143 42.1117 146.872 44.4628 153.856 49.4415L138.644 49.7872L135.186 45.8457C133.319 43.7021 129.723 40.5904 127.234 38.8617Z" fill="#292929"/>
<path d="M59.8137 41.0745C64.0318 39 69.0105 36.8564 70.8775 36.3032C72.8137 35.8191 74.8882 35.3351 75.5797 35.3351C76.202 35.266 76.6169 35.5426 76.4095 35.9574C76.202 36.3723 73.6435 38.2394 70.7392 40.2447C67.7658 42.1808 63.5477 45.2234 61.2658 46.9521C57.3243 50.0638 57.1169 50.133 52.6222 49.9255C50.1329 49.8564 47.9892 49.6489 47.9201 49.4415C47.7818 49.234 48.7499 48.1277 49.9946 46.9521C51.1701 45.8457 55.5956 43.1489 59.8137 41.0745Z" fill="#292929"/>
<path d="M50.1329 39.8989C53.1754 38.9308 57.5318 37.617 59.8137 37.0638C62.0956 36.5106 64.3775 36.0266 64.8616 36.0266C65.2765 35.9574 62.9254 37.3404 59.6063 39.0691C56.2871 40.7287 51.3084 43.8404 43.5637 49.7872H37.686C33.3297 49.7872 31.8775 49.5798 32.0158 48.9574C32.1541 48.4734 35.0584 46.6755 38.4467 44.9468C41.835 43.2181 47.0903 40.9362 50.1329 39.8989Z" fill="#292929"/>
<path d="M151.782 45.984C149.085 43.8404 144.106 40.7287 140.718 39C135.532 36.3723 134.979 35.9574 137.261 36.3723C138.782 36.6489 142.585 37.5479 145.766 38.4468C148.878 39.3457 153.372 40.867 155.792 41.8351C158.144 42.8032 162.154 44.8777 164.782 46.3298C167.34 47.8511 169.415 49.234 169.415 49.4415C169.415 49.6489 166.511 49.7872 156.622 49.7872L151.782 45.984Z" fill="#292929"/>
<path d="M19.085 62.234C20.0531 60.1596 22.2658 56.9787 24.0637 55.1809L27.2446 51.8617H34.3669C38.3084 51.8617 41.4892 52.0691 41.4892 52.4149C41.5584 52.6915 40.936 53.6596 40.1754 54.6277C39.4148 55.5957 38.1701 57.9468 37.3403 59.8138C36.4414 61.75 35.6116 64.516 34.8509 68.8032L26.069 69.0106C17.3563 69.1489 17.2871 69.1489 17.2871 67.6277C17.2871 66.7287 18.1169 64.3085 19.085 62.234Z" fill="#292929"/>
<path d="M38.3084 62.1649C39.1382 59.9521 40.7977 56.7713 42.0424 55.0426L44.2552 51.9309H54.6275L46.6063 60.367C42.1807 65 38.1009 68.9415 37.6169 69.0106C37.0637 69.0798 36.718 68.5266 36.718 67.6277C36.718 66.7979 37.4095 64.3085 38.3084 62.1649Z" fill="#292929"/>
<path d="M42.7339 67.0053C43.4254 65.7606 47.0903 61.8883 50.8935 58.3617C54.6967 54.766 58.2924 51.8617 58.9839 51.8617C59.6754 51.8617 60.2286 52.1383 60.2286 52.5532C60.2286 52.8989 59.6063 54.6968 58.7765 56.4947C58.0158 58.2925 56.9786 61.8883 55.7339 69.1489H41.5584L42.7339 67.0053Z" fill="#292929"/>
<path d="M59.6754 59.1223C60.5052 56.8404 61.5424 54.2819 62.0956 53.383C63.0637 51.9308 63.5477 51.8617 80.6275 51.7926L80.0743 54.4202C79.7978 55.8723 79.1754 59.7447 77.8616 69.1489H67.9733C60.6435 69.1489 58.1541 68.9415 58.085 68.25C58.0158 67.766 58.085 66.4521 58.1541 65.3457C58.2233 64.1702 58.9148 61.4043 59.6754 59.1223Z" fill="#292929"/>
<path d="M80.4201 63.7553C80.6967 60.8511 81.2499 56.9096 81.6648 55.1117L82.4946 51.8617H99.6435V69.1489H79.936L80.4201 63.7553Z" fill="#292929"/>
<path d="M100.957 69.0798V60.4362V51.7926H118.245L118.936 54.766C119.282 56.3564 119.835 60.2979 120.665 69.1489L100.957 69.0798Z" fill="#292929"/>
<path d="M121.909 63.0638C121.425 59.7447 120.803 55.8032 120.596 54.4202L120.112 51.7926H137.606L139.473 55.4574C140.441 57.4628 141.686 60.9202 142.101 63.2021C142.585 65.484 142.862 67.766 142.723 68.25C142.516 68.8723 139.888 69.0798 122.739 69.1489L121.909 63.0638Z" fill="#292929"/>
<path d="M142.516 58.4309C141.686 56.1489 140.856 53.7287 140.649 53.0372C140.234 51.9308 140.925 51.8617 156.346 51.8617L158.697 55.1117C159.941 56.9096 161.601 60.0213 162.292 61.9574C163.399 65 163.468 65.8298 162.707 67.3511C161.878 69.0798 161.67 69.1489 154.755 69.2872C150.883 69.4255 147.08 69.4255 146.319 69.2872C145.213 69.1489 144.867 68.3883 144.452 65.8298C144.245 64.0319 143.346 60.7128 142.516 58.4309Z" fill="#292929"/>
<path d="M161.117 55.8032C160.011 54.0053 159.112 52.4149 159.112 52.2074C159.112 52 161.878 51.8617 165.335 51.8617C168.723 51.8617 171.558 52 171.558 52.2074C171.558 52.4149 170.659 54.3511 169.553 56.4947C168.447 58.7074 166.925 61.266 164.851 63.9628L164.021 61.5426C163.537 60.2287 162.292 57.6011 161.117 55.8032Z" fill="#292929"/>
<path d="M167.894 62.9255C169.415 60.4362 171.143 57.2553 171.766 55.8032C172.457 54.4202 173.425 53.2447 173.979 53.2447C174.532 53.2447 175.915 54.2128 177.09 55.4574C178.197 56.7021 180.064 59.4681 181.17 61.5426C182.346 63.617 183.245 66.1755 183.314 69.1489H174.67C168.447 69.1489 165.888 68.8723 165.612 68.25C165.404 67.766 166.441 65.4149 167.894 62.9255Z" fill="#292929"/>
<path d="M19.2233 78.5532C18.186 76.4096 17.3563 73.9202 17.3563 72.9521V71.2234H26.3456C33.8829 71.2234 35.335 71.3617 35.335 72.2606C35.335 72.8138 33.8137 75.9947 31.9467 79.3138L31.9463 79.3145C30.0103 82.6334 28.0743 85.9522 27.5903 86.7128C26.7605 87.8883 26.5531 87.8191 23.9254 85.1915C22.4041 83.6702 20.3297 80.6968 19.2233 78.5532Z" fill="#292929"/>
<path d="M37.3403 75.5106C37.3403 74.6117 37.6169 73.2979 38.0318 72.5372C38.7233 71.3617 39.6222 71.2234 55.7339 71.2234L56.5637 75.8564C56.9786 78.4149 58.0158 82.0798 58.8456 84.016C59.6063 85.883 60.0903 87.8191 59.8829 88.3032C59.6754 88.9255 57.3935 89.2021 45.0158 89.2021L42.9414 86.5745C41.7658 85.1915 40.1063 82.4255 39.1382 80.5585C38.2392 78.6223 37.4095 76.3404 37.3403 75.5106Z" fill="#292929"/>
<path d="M59.3297 80.2128C58.7073 78.1383 58.085 75.234 57.8084 73.7819L57.3935 71.2234H77.8616L79.0371 79.5213C79.7286 84.0851 80.1435 88.0957 79.936 88.5106C79.7286 88.9255 76.202 89.2021 63.3403 89.2021L61.819 86.6436C60.9892 85.1915 59.8829 82.2872 59.3297 80.2128Z" fill="#292929"/>
<path d="M81.8722 86.0213C81.319 84.5 80.6967 80.5585 80.4892 77.2394L80.0052 71.1543H99.5052L99.2978 88.7872H82.8403L81.8722 86.0213Z" fill="#292929"/>
<path d="M101.372 88.8564L101.234 80.0053L101.026 71.2234H120.734L120.25 76.8936C120.042 80.0745 119.42 84.0851 117.968 89.2713L101.372 88.8564Z" fill="#292929"/>
<path d="M120.803 88.4415C120.596 88.0957 120.941 84.016 121.564 79.4521L122.739 71.1543H142.585V73.7819C142.585 75.1649 142.032 78.0691 141.479 80.1436C140.856 82.2872 139.681 85.1223 137.399 89.2021H129.239C124.537 89.133 120.941 88.8564 120.803 88.4415Z" fill="#292929"/>
<path d="M141.686 84.1543C142.585 82.1489 143.622 78.4149 144.106 75.8564L144.867 71.1543H151.989C155.931 71.1543 159.112 71.4308 159.112 71.7074C159.112 71.984 156.691 74.8883 153.718 78.0691C150.745 81.3191 146.803 85.1915 145.005 86.7128C142.447 88.9255 141.548 89.3404 140.925 88.6489C140.303 88.0266 140.511 86.9894 141.686 84.1543Z" fill="#292929"/>
<path d="M151.644 82.633C154.755 79.5904 158.351 75.7872 159.665 74.1277C160.979 72.5372 162.5 71.2234 163.053 71.2234C163.537 71.2234 164.021 71.8457 164.021 72.6064C164.021 73.367 163.191 76.0638 162.223 78.6223C161.255 81.1808 159.388 84.6383 158.074 86.2287C155.792 89.133 155.585 89.2021 151.713 89.2021C149.5 89.2021 147.356 88.9255 146.941 88.6489C146.388 88.3032 147.979 86.2979 151.644 82.633Z" fill="#292929"/>
<path d="M163.952 78.9681C164.782 76.9628 165.404 74.4043 165.404 73.2979V71.2234H183.383V72.9521C183.383 73.9202 182.553 76.2713 181.585 78.2766C180.617 80.2819 178.197 83.6011 172.665 89.2021H166.234C162.707 89.2021 159.665 88.8564 159.526 88.5106C159.319 88.0957 159.941 86.6436 160.84 85.1915C161.808 83.8085 163.191 80.9734 163.952 78.9681Z" fill="#292929"/>
<path d="M30.9786 84.3617C31.9467 82.2872 33.3297 79.6596 34.1595 78.6223L35.5424 76.6862L38.4467 82.4255C40.3829 86.1596 41.0743 88.3032 40.5903 88.6489C40.1754 88.9255 38.0318 89.133 35.7499 89.133C33.468 89.133 31.0477 88.8564 30.3563 88.6489C29.319 88.1649 29.319 87.8191 30.9786 84.3617Z" fill="#292929"/>
<path d="M40.0371 96.4628C37.2712 95.0798 34.0903 93.2819 32.9839 92.3138L30.9095 90.6543L37.4786 90.5851C43.8403 90.5851 44.1169 90.6543 46.468 92.7287C47.7818 93.9043 50.4095 95.9096 52.3456 97.1543C54.2126 98.3989 57.9467 100.543 60.6435 101.926C63.2712 103.239 64.9999 104.415 64.4467 104.415C63.8935 104.346 61.6807 103.931 59.6063 103.447C57.5318 102.963 53.3829 101.718 50.4095 100.681C47.5052 99.7128 42.8031 97.7766 40.0371 96.4628Z" fill="#292929"/>
<path d="M51.1009 94.3883C49.3031 93.0053 47.8509 91.6223 47.8509 91.2766C47.8509 90.8617 50.6169 90.5851 62.0265 90.6543L66.1754 95.2181C68.4573 97.7074 72.3297 101.027 74.819 102.548C77.3084 104.138 78.968 105.452 78.6222 105.66C78.2073 105.798 75.4414 105.176 72.3988 104.346C69.3563 103.516 64.0318 101.511 60.6435 99.7819C57.186 98.1223 52.8988 95.7021 51.1009 94.3883Z" fill="#292929"/>
<path d="M66.7977 93.6968C65.8988 92.5213 65.1382 91.3457 65.1382 91.0691C65.1382 90.7925 68.8031 90.5851 81.3882 90.5851L83.8775 95.9787C85.3297 98.883 87.5424 102.617 88.9254 104.207C91.069 106.766 91.2073 107.181 90.0318 107.181C89.2712 107.181 86.8509 106.489 84.6382 105.66C82.4946 104.83 79.5903 103.585 78.2765 102.824C76.9626 102.064 74.1275 100.197 72.1222 98.6064C70.0478 97.016 67.6275 94.8032 66.7977 93.6968Z" fill="#292929"/>
<path d="M85.8829 96.8085C84.7765 94.6649 83.8084 92.4521 83.8084 91.7606C83.8084 90.7234 84.6382 90.5851 99.7126 90.5851V108.218L97.085 107.665C95.3563 107.319 93.4892 106.144 91.2073 103.862C89.4095 102.064 86.9892 98.883 85.8829 96.8085Z" fill="#292929"/>
<path d="M102.617 107.872C101.096 107.872 101.096 107.734 101.096 99.2287V90.5851H109.048C115.617 90.5851 117 90.7234 117 91.6223C117 92.1755 116.239 94.1117 115.34 95.9096C114.441 97.7074 112.782 100.266 111.745 101.58C110.638 102.894 108.495 104.83 106.973 105.936C105.452 106.973 103.516 107.872 102.617 107.872Z" fill="#292929"/>
<path d="M111.952 104.069C113.197 102.755 115.409 99.1596 116.792 96.117L119.42 90.5851H127.511C133.596 90.5851 135.67 90.7925 135.67 91.4149C135.67 91.8989 133.803 93.9734 131.59 96.117C129.308 98.1915 125.09 101.165 122.048 102.755C119.074 104.346 115.34 106.074 113.75 106.559C112.09 107.112 110.569 107.319 110.292 107.043C109.947 106.766 110.707 105.383 111.952 104.069Z" fill="#292929"/>
<path d="M130.138 100.128C133.734 97.6383 138.09 94.4574 139.75 93.0745C142.723 90.7234 143.207 90.5851 147.909 90.5851C150.745 90.5851 152.888 90.8617 152.888 91.2766C152.888 91.6915 151.436 93.0745 149.638 94.3883C147.84 95.7021 143.553 98.1915 140.096 99.8511C136.707 101.58 132.005 103.447 129.723 104.069C127.441 104.691 125.159 105.106 124.606 104.968C124.122 104.899 126.612 102.686 130.138 100.128Z" fill="#292929"/>
<path d="M146.665 98.1223C149.154 96.6702 152.404 94.3883 153.925 93.0053C156.691 90.5851 156.761 90.5851 163.261 90.5851C169.346 90.516 169.761 90.5851 168.792 91.6915C168.239 92.3138 164.989 94.25 161.532 95.9787C158.144 97.6383 152.197 100.059 148.394 101.303C144.59 102.548 140.096 103.723 135.255 104.484L138.713 102.617C140.649 101.649 144.245 99.6436 146.665 98.1223Z" fill="#292929"/>
<path d="M26.3456 97.5C26.7605 95.4255 27.2446 93.2819 27.452 92.867C27.5903 92.383 28.0052 91.9681 28.4201 91.9681C28.835 91.9681 30.0105 92.5213 31.0477 93.2819C32.085 93.9734 35.4041 95.8404 38.4467 97.3617C41.4892 98.9521 47.2977 101.303 51.2392 102.617C55.2499 103.931 61.819 105.729 65.7605 106.489C69.7712 107.25 76.7552 108.356 81.319 108.91C85.8829 109.463 93.9041 109.947 99.1595 109.947C104.346 109.947 108.633 110.154 108.633 110.5C108.633 110.777 106.697 111.883 104.346 112.989C101.925 114.096 96.6009 116.17 92.3829 117.691C88.2339 119.213 81.8722 121.149 78.2073 122.048C74.6116 122.947 68.4573 124.053 64.585 124.468C59.8137 124.952 55.4573 124.952 51.4467 124.468C48.1275 124.122 43.4946 123.154 41.2126 122.394C38.9307 121.564 36.0265 120.112 34.7126 119.074C33.3297 118.037 31.6701 116.585 30.9786 115.824C30.2871 115.064 29.1116 113.266 28.3509 111.883C27.6595 110.431 26.6914 107.457 26.3456 105.314C25.7924 102.41 25.7924 100.197 26.3456 97.5Z" fill="#292929"/>
<path d="M80.2126 178.543C80.1435 166.027 80.3509 155.585 80.6275 155.378C80.9733 155.101 81.4573 154.894 81.8031 154.894C82.1488 154.894 82.3563 165.335 82.3563 178.059C82.3563 198.181 82.218 201.223 81.319 201.223C80.4201 201.223 80.2818 198.181 80.2126 178.543Z" fill="#292929"/>
<path d="M163.191 177.505C163.122 165.543 163.33 155.585 163.606 155.378C163.952 155.101 164.436 154.894 164.782 154.894C165.128 154.894 165.335 165.335 165.335 178.059C165.335 193.064 165.128 201.223 164.644 201.223C164.298 201.223 163.814 200.739 163.606 200.186C163.468 199.633 163.261 189.399 163.191 177.505Z" fill="#292929"/>
</svg>
