<svg width="174" height="150" viewBox="0 0 174 150" fill="none" xmlns="http://www.w3.org/2000/svg">
<path d="M14.5 4.84286C16.1 4.04286 19.7 2.54286 22.5 1.54286C25.9 0.342857 29.9 -0.157143 35 0.0428571C41 0.142857 43.7 0.842857 48.5 3.24286C53 5.54286 55.3 7.44286 57.8 11.1429C60.9 15.9429 61.1 16.5429 61 25.8429C61 31.5429 60.4 37.8429 59.5 40.8429C58.5 44.1429 56.5 47.6429 54.2 50.0429C52.2 52.2429 48.5 54.9429 46 56.0429C43.1 57.2429 38.3 58.1429 32.5 58.4429C24.2 58.9429 23 58.7429 17.1 56.0429C13.2 54.2429 9.1 51.3429 6.5 48.6429C3.4 45.3429 2 42.7429 1.2 38.8429C0.5 36.0429 0 31.8429 0 29.6429C0 27.4429 0.7 23.5429 1.6 20.8429C2.5 18.2429 5.1 13.9429 7.4 11.2429C9.6 8.54286 12.9 5.74286 14.5 4.84286Z" fill="#FBFDFC"/>
<path d="M121.1 6.24286C123.5 4.64286 127.5 2.74286 130 2.04286C132.5 1.44286 137 0.842857 140 0.842857C143 0.742857 148.2 1.34286 151.5 2.14286C154.8 2.94286 158.4 4.24286 159.5 5.04286C160.6 5.74286 163.2 8.04286 165.3 10.0429C167.3 12.0429 169.7 14.9429 170.5 16.6429C171.3 18.2429 172.4 22.1429 173 25.1429C173.8 29.7429 173.7 31.9429 171.9 38.3429C170.8 42.6429 168.7 47.9429 167.2 50.1429C165.4 52.8429 162.6 55.1429 158.5 57.1429C153.1 59.8429 151.6 60.1429 143.5 60.0429C136.4 60.0429 133.2 59.5429 128.5 57.6429C125.2 56.3429 120.3 53.4429 117.5 51.1429C114.3 48.5429 112 45.6429 111.1 43.0429C110.3 40.8429 109.6 35.1429 109.6 30.0429C109.5 21.3429 109.6 20.7429 113.1 15.0429C115.3 11.5429 118.6 7.94286 121.1 6.24286Z" fill="#FBFDFC"/>
<path d="M17.8 38.7429C19.8 36.6429 21.8 35.6429 24.6 35.3429C26.7 35.1429 28.5 34.9429 28.5 34.8429C28.5 34.6429 29.8 35.0429 31.5 35.6429C33.1 36.1429 35.2 37.8429 36 39.2429C36.8 40.7429 37.5 43.8429 37.5 46.0429C37.5 48.9429 36.8 50.9429 35.3 52.5429C33.5 54.4429 32 54.8429 26.5 54.9429C20.2 55.1429 19.7 54.9429 17.4 52.1429C15.8 50.1429 15 47.8429 15 45.3429C15 42.6429 15.7 40.8429 17.8 38.7429Z" fill="#060304"/>
<path d="M95.4 62.1429C95.5 45.4429 95.9 34.8429 96.5 34.4429C97 34.0429 97.7 33.7429 98 33.7429C98.3 33.7429 99.3 34.0429 100.4 34.4429C102.1 35.1429 102.3 36.8429 102.6 61.1429C103 85.9429 102.9 87.5429 100.8 94.4429C99.5 98.5429 97.6 102.643 96.5 103.543C95.4 104.543 92.7 106.043 90.5 106.943C87.5 108.143 85.5 108.243 82.3 107.543C79.9 107.043 76.4 105.443 74.5 103.943C72.5 102.343 69.9 99.5429 68.8 97.6429C67.6 95.7429 66.1 92.1429 65.4 89.6429C64.8 87.1429 64.2 78.1429 64 69.6429C63.9 61.1429 63.7 50.7429 63.6 46.6429C63.4 42.5429 63.5 38.5429 63.7 37.9429C63.9 37.2429 65.3 36.6429 67 36.6429C69.4 36.6429 70.2 37.2429 70.9 39.4429C71.4 40.9429 71.4 48.9429 71 57.1429C70.6 65.4429 70.7 74.8429 71.2 78.1429C71.7 81.4429 72.6 86.1429 73.1 88.6429C73.8 91.4429 75.3 94.2429 77.3 96.1429C79.2 97.9429 82.2 99.5429 84.5 99.9429C87.7 100.643 89 100.343 91 98.8429C92.4 97.7429 93.9 95.2429 94.4 93.0429C94.9 90.8429 95.4 76.9429 95.4 62.1429Z" fill="#292929"/>
<path d="M44.8 143.743C43.8 142.843 43.3 141.843 43.5 141.443C43.8 141.043 62.8 140.843 85.8 141.143C108.7 141.343 127.8 141.543 128.3 141.543C128.7 141.643 129 142.443 129 143.443C129 144.343 128 145.643 126.8 146.343C125.5 146.943 119.1 147.843 112.5 148.243C105.9 148.543 97.7 148.843 94.3 148.743C90.8 148.743 87 149.043 85.8 149.543C84.2 150.143 82.4 149.943 80 149.043C78.1 148.243 73.8 147.643 70.5 147.643C67.2 147.643 60.5 147.143 55.5 146.443C50.1 145.743 45.8 144.643 44.8 143.743Z" fill="#292929"/>
<path d="M125.7 39.9429C126.2 39.0429 128.3 37.4429 130.5 36.4429C132.7 35.4429 135.5 34.6429 136.7 34.6429C138 34.6429 140 35.1429 141.2 35.7429C142.5 36.3429 144.5 38.0429 145.6 39.4429C146.8 40.9429 148.1 43.8429 148.4 45.8429C148.9 49.2429 148.6 50.0429 145.5 53.1429C142.8 55.8429 141.2 56.6429 138.5 56.6429C136.6 56.6429 133.2 55.7429 131 54.6429C128.8 53.5429 126.6 51.7429 126 50.6429C125.4 49.5429 125 47.0429 125 45.1429C125 43.2429 125.3 40.8429 125.7 39.9429Z" fill="#060304"/>
</svg>
