<svg width="247" height="119" viewBox="0 0 247 119" fill="none" xmlns="http://www.w3.org/2000/svg">
<path d="M14.53 1.86346C14.04 5.92346 13.88 8.99346 14.02 11.0235C14.11 12.3535 14.35 13.1735 14.75 13.4735C14.97 13.6735 15.27 13.7235 15.65 13.6535C16.05 13.5335 16.64 13.2735 17.41 12.8835C18.58 12.3135 19.63 11.9035 20.54 11.6035C21.48 11.2635 22.52 11.1335 23.66 11.1835C27.62 11.3735 30.59 13.1135 32.55 16.4335C34.51 19.7135 35.69 25.0135 36.1 32.3435C36.42 38.4335 35.83 43.2935 34.33 46.9335C32.84 50.5935 30.59 52.4135 27.6 52.3435C25.91 52.3035 24.31 51.5435 22.8 50.0435C21.33 48.5035 20.01 46.6435 18.82 44.4835C18.37 43.6935 18.02 42.9635 17.78 42.2735C17.57 41.5435 17.45 41.1135 17.4 40.9635C17.35 40.8235 17.25 40.5835 17.11 40.2335C17.01 39.8935 16.89 39.6435 16.76 39.5035C16.67 39.3535 16.56 39.2835 16.44 39.2735C15.9 39.2535 15.66 39.5735 15.7 40.2535C15.73 40.7835 15.93 41.4835 16.31 42.3735C16.68 43.2535 17.22 44.4035 17.91 45.8335C19.06 48.2835 20.49 50.4235 22.22 52.2135C15.88 52.0001 9.59 51.7468 3.35 51.4535C3.48 49.5235 3.44 46.0635 3.23 41.1035C3.11 38.2635 3.14 36.1635 3.32 34.7835C3.55 33.4035 4.08 32.4035 4.93 31.7635C5.79 31.1335 7.16 30.8535 9.06 30.9335C10.05 30.9735 10.9 31.0835 11.61 31.2435C12.36 31.4235 13.33 31.7035 14.51 32.0735C15.27 32.3935 16.05 32.6435 16.85 32.8235C20.15 33.5235 22.81 33.9035 24.8 33.9735C30.48 34.1635 33.46 32.5435 33.73 29.1535C33.76 29.0035 33.77 28.7735 33.75 28.4335C33.67 27.0135 33.05 25.8335 31.86 24.8935C30.67 23.9535 29.32 23.4435 27.81 23.3835C26.55 23.3335 25.33 23.5335 24.14 23.9535C22.96 24.3435 21.5 24.9735 19.77 25.8435C17.83 26.8235 16.14 27.5635 14.69 28.0835C13.27 28.5435 11.73 28.7535 10.08 28.6835C8.64 28.6235 7.32 28.1835 6.15 27.3735C4.98 26.5135 4.04 25.4335 3.33 24.1235C2.6 22.7535 2.21 21.3535 2.14 19.9235C2.08 18.5835 1.96 16.8535 1.79 14.7035C1.6 12.2235 1.38 10.1035 1.11 8.33346C0.89 6.50346 0.52 4.12346 0 1.16346C4.83333 1.39013 9.67667 1.62346 14.53 1.86346Z" fill="#E3623A"/>
<path d="M70.98 30.2035C71.16 33.7435 71.42 37.1835 71.79 40.5035C72.15 43.8335 72.67 47.9535 73.35 52.8635C68.5967 52.8368 63.8533 52.8068 59.12 52.7735C59.38 47.8035 59.53 43.6435 59.59 40.2835C59.64 36.9335 59.58 33.4635 59.4 29.8835C59.32 28.7701 59.24 27.6535 59.16 26.5335C59.0933 25.6735 59.0267 24.8135 58.96 23.9535C57.86 23.1235 56.74 22.6935 55.59 22.6535C54.67 22.6235 53.9 22.9235 53.29 23.5535C52.74 24.1435 52.49 24.9635 52.55 26.0335C52.57 26.5535 52.66 27.0935 52.82 27.6535C54.49 32.9735 55.39 37.3435 55.55 40.7635C55.62 42.2735 55.61 43.6035 55.49 44.7735C55.31 47.1635 54.59 49.0935 53.34 50.5335C52.09 51.9735 50.4 52.6935 48.26 52.6735C44.9467 52.6335 41.6367 52.5901 38.33 52.5435C38.56 47.4835 38.7 43.2435 38.74 39.8135C38.78 36.4135 38.7 32.8835 38.51 29.2335C38.4233 28.1068 38.34 26.9735 38.26 25.8335C37.93 21.6335 37.64 18.2535 37.36 15.6535C37.08 13.0735 36.52 8.82346 35.66 2.92346C41.04 3.19013 46.4233 3.4568 51.81 3.72346C50.9 6.26346 50.15 9.80346 49.56 14.3535C49.02 18.9335 48.83 22.8835 49.01 26.2035C49.09 27.7435 49.27 29.1835 49.55 30.4935C49.87 31.7735 50.23 32.7435 50.65 33.4135C51.06 34.0835 51.45 34.3035 51.82 34.0735C52.1 33.8935 52.23 33.5335 52.2 32.9635C52.17 32.3635 51.95 31.3435 51.55 29.9335C51.3033 28.8935 51.06 27.8568 50.82 26.8235C50.69 26.1635 50.62 25.6735 50.61 25.3535C50.52 23.7535 50.9 22.5635 51.74 21.7535C52.58 20.9035 53.72 20.5035 55.17 20.5635C56.31 20.6035 57.51 20.9135 58.77 21.5135C58.53 17.7235 57.82 11.8635 56.65 3.96346C61.41 4.19013 66.17 4.4168 70.93 4.64346C70.74 10.3635 70.65 14.4835 70.67 16.9935C70.67 19.5135 70.75 22.8035 70.87 26.8835C70.91 27.9901 70.9467 29.0968 70.98 30.2035Z" fill="#E3623A"/>
<path d="M106.7 30.1135C106.88 32.0835 107.31 33.4735 108.01 34.2835C108.73 35.1035 109.82 35.4435 111.29 35.3335C111.51 40.2335 111.717 45.1368 111.91 50.0435C110.92 50.8935 109.9 51.6035 108.9 52.1835C107.89 52.7235 106.8 52.9935 105.65 52.9835C103.89 52.9835 102.46 52.5035 101.34 51.5535C100.24 50.6035 99.39 49.0535 98.78 46.9335C98.22 44.7635 97.86 41.8335 97.69 38.1835C97.6367 36.5835 97.58 34.9835 97.52 33.3835C97.44 30.1535 97.34 27.6535 97.2 25.8935C96.7333 25.8868 96.26 25.8768 95.78 25.8635C95.86 27.2535 95.92 29.1235 95.95 31.4635C95.9967 32.9035 96.0467 34.3468 96.1 35.7935C96.31 40.3535 96.15 43.8535 95.61 46.2935C95.07 48.6935 94.02 50.4035 92.49 51.4435C90.95 52.4435 88.69 52.9335 85.7 52.9135C82.76 52.9035 80.47 52.4335 78.81 51.5035C77.2 50.5835 76.04 49.0735 75.31 46.9935C74.58 44.8535 74.13 41.9335 73.96 38.2035C73.73 33.5435 73.98 30.1835 74.68 28.1035C75.38 26.0135 76.79 24.6435 78.92 23.9735C81.05 23.2735 84.49 22.9935 89.23 23.1335C91.73 23.2001 94.2333 23.2668 96.74 23.3335C96 21.6135 94.59 20.4535 92.5 19.8535C90.42 19.2035 87.92 18.8335 85.03 18.7335C83.81 18.7201 82.5933 18.7001 81.38 18.6735C78.5733 18.5801 75.7633 18.4835 72.95 18.3835C72.6967 13.8168 72.44 9.2568 72.18 4.70346C79.5867 5.05013 86.9967 5.39013 94.41 5.72346C94.72 5.74346 95.63 5.78346 97.17 5.84346C98.71 5.91346 99.94 6.20346 100.87 6.73346C101.8 7.20346 102.64 7.96346 103.39 9.00346C104.28 10.2235 104.9 11.8735 105.25 13.9635C105.59 16.0435 105.91 19.0435 106.17 22.9535C106.35 26.1135 106.53 28.5035 106.7 30.1135ZM85.88 33.9035C88.36 33.9535 90.18 33.6935 91.35 33.1335C92.52 32.5235 93.25 31.6835 93.54 30.6035C93.81 29.4835 93.92 27.8835 93.85 25.8135C92.7833 25.7868 91.7167 25.7601 90.65 25.7335C86.98 25.6335 84.31 25.6335 82.66 25.7235C81.05 25.8135 79.82 26.1135 79 26.6435C78.22 27.1135 77.86 27.9835 77.92 29.2135C77.98 30.3635 78.2 31.2535 78.56 31.9035C78.93 32.5035 79.66 32.9735 80.74 33.3135C81.87 33.6635 83.58 33.8535 85.88 33.9035Z" fill="#E3623A"/>
<path d="M126.33 6.62346C125.79 10.4035 125.58 13.2435 125.69 15.1135C125.77 16.3535 126.01 17.0935 126.42 17.3635C126.65 17.5435 126.95 17.5835 127.34 17.4935C127.78 17.3635 128.4 17.1035 129.22 16.7135C130.46 16.1435 131.56 15.7135 132.51 15.3935C133.5 15.0435 134.61 14.8735 135.8 14.8635C139.97 14.8435 143.06 16.3335 145.05 19.3635C147.04 22.3635 148.15 27.3135 148.39 34.2035C148.57 39.9135 147.84 44.4835 146.19 47.9235C144.55 51.3635 142.17 53.0835 139.04 53.0735C137.26 53.0735 135.59 52.4035 134.03 51.0535C132.52 49.6635 131.17 47.9935 129.97 46.0235C129.51 45.3035 129.15 44.6435 128.92 44.0135C128.72 43.3435 128.6 42.9435 128.54 42.8035C128.49 42.6735 128.4 42.4635 128.26 42.1435C128.16 41.8335 128.04 41.6035 127.91 41.4735C127.82 41.3435 127.71 41.2735 127.58 41.2735C127.01 41.2735 126.74 41.5735 126.77 42.2035C126.79 42.6935 126.99 43.3435 127.36 44.1435C127.74 44.9535 128.27 46.0035 128.97 47.2935C130.13 49.5335 131.6 51.4535 133.39 53.0635C126.69 53.0435 119.997 53.0268 113.31 53.0135C113.51 51.2235 113.58 48.0135 113.52 43.4035C113.5 40.7535 113.61 38.7935 113.84 37.5035C114.13 36.2135 114.73 35.2635 115.66 34.6435C116.58 34.0235 118.04 33.7335 120.03 33.7535C121.07 33.7535 121.97 33.8335 122.7 33.9635C123.49 34.1135 124.5 34.3335 125.73 34.6535C126.53 34.9235 127.34 35.1235 128.17 35.2635C131.64 35.8135 134.42 36.0935 136.51 36.0935C142.46 36.0935 145.61 34.4835 145.99 31.2835C146.02 31.1435 146.04 30.9235 146.03 30.6035C145.98 29.2735 145.34 28.1935 144.12 27.3535C142.91 26.5135 141.5 26.0935 139.91 26.1035C138.6 26.1035 137.31 26.3335 136.06 26.7635C134.8 27.1735 133.25 27.8135 131.42 28.6835C129.36 29.6635 127.56 30.4035 126.02 30.9335C124.52 31.4035 122.9 31.6435 121.16 31.6235C119.65 31.6135 118.29 31.2435 117.08 30.5235C115.87 29.7535 114.91 28.7735 114.19 27.5635C113.48 26.3035 113.11 25.0135 113.08 23.6835C113.05 22.4435 112.98 20.8335 112.86 18.8435C112.72 16.5535 112.53 14.5935 112.29 12.9635C112.1 11.2935 111.75 9.09346 111.25 6.38346C116.243 6.50346 121.27 6.58346 126.33 6.62346Z" fill="#E3623A"/>
<path d="M170.2 53.1235C170.82 51.2635 171.31 48.9435 171.66 46.1535C172.01 43.3535 172.17 40.5435 172.12 37.7035C172.07 34.9135 171.83 32.3535 171.39 30.0235C169.91 30.0435 168.43 30.0601 166.95 30.0735C166.983 31.3735 167.013 32.6735 167.04 33.9735C167.04 38.4935 166.74 42.1635 166.13 44.9535C165.58 47.7335 164.61 49.8135 163.25 51.1635C161.92 52.4635 160.11 53.1135 157.79 53.1135C155.49 53.1035 153.64 51.8035 152.22 49.2035C150.81 46.6135 150.02 43.4435 149.87 39.6935C149.52 31.5235 150.22 24.8535 151.97 19.6435C153.02 16.5235 154.43 13.9535 156.24 11.9335C158.06 9.90346 159.93 8.43346 161.87 7.50346C163.83 6.57346 165.58 6.10346 167.16 6.07346C169.86 6.02346 172.44 6.71346 174.9 8.14346C177.36 9.57346 179.5 11.7335 181.33 14.6135C183.19 17.5035 184.59 21.0235 185.51 25.2035C186.97 32.2135 187.72 41.5035 187.8 53.0935C181.94 53.1068 176.073 53.1168 170.2 53.1235ZM157.96 27.9335C162.267 27.8735 166.573 27.8101 170.88 27.7435C170.74 27.3435 170.603 26.9401 170.47 26.5335C169.66 24.3035 168.34 22.5835 166.49 21.3535C164.64 20.0735 162.69 19.4535 160.64 19.4835C159 19.5035 157.57 19.9635 156.35 20.8735C155.18 21.7235 154.28 22.8435 153.67 24.2335C153.1 25.6135 152.83 27.0535 152.88 28.5735C152.94 30.4435 153.48 32.0635 154.48 33.4435C155.49 34.8235 156.92 35.6435 158.77 35.9035C159.48 35.9935 160 36.0335 160.36 36.0335C162.73 36.0235 164.2 35.2235 164.79 33.6435C165.07 32.8835 165.14 31.6935 164.97 30.0935C162.65 30.1068 160.333 30.1235 158.02 30.1435C158 29.4035 157.98 28.6668 157.96 27.9335Z" fill="#E3623A"/>
<path d="M190.87 53.0835C189.65 44.8535 189.03 37.6235 189 31.3835C188.96 23.3535 189.79 17.1235 191.51 12.6835C193.22 8.20346 196.13 5.78346 200.22 5.43346C202.28 5.25346 204.39 6.20346 206.53 8.27346C208.67 10.2935 210.39 13.1935 211.72 16.9535C213.07 20.6735 213.68 24.8535 213.59 29.4735C213.55 31.8335 213.59 33.3535 213.7 34.0335C213.82 34.7135 214.17 35.0535 214.73 35.0435C215.2 35.0335 215.53 34.8435 215.71 34.4735C215.94 34.1035 216.07 33.5235 216.13 32.7535C216.2 31.9835 216.25 30.6835 216.29 28.8735C216.4 24.1035 215.75 19.8735 214.32 16.1535C212.87 12.4435 210.76 8.81346 207.96 5.27346C214.04 5.1468 220.113 5.0168 226.18 4.88346C226.8 6.48346 227.42 9.12346 228 12.8035C228.57 16.4435 228.88 20.1235 228.94 23.8735C228.95 24.6835 228.92 25.8635 228.86 27.4035C228.68 31.9835 228.1 36.2035 227.12 40.0535C226.17 43.8835 224.95 46.9535 223.43 49.2535C221.92 51.5535 220.22 52.7235 218.32 52.7735C216.07 52.8135 214.37 51.8935 213.23 50.0235C212.13 48.1735 211.43 45.6535 211.12 42.5035C210.81 39.3635 210.7 35.1635 210.78 29.9435C210.84 26.7635 210.53 24.1035 209.85 21.9435C209.22 19.7335 208.26 18.6535 206.98 18.6835C206.84 18.6835 206.6 18.7335 206.25 18.8235C205.1 19.2535 204.5 21.4335 204.46 25.3635C204.43 28.8535 204.84 33.0835 205.72 38.0735C206.63 43.0835 207.91 48.0235 209.56 52.9235C203.347 52.9901 197.117 53.0435 190.87 53.0835Z" fill="#E3623A"/>
<path d="M234.08 15.8835C234.73 16.1035 235.36 16.1935 235.97 16.1835C236.36 16.1735 236.66 16.1235 236.88 16.0235C237.11 15.8835 237.13 15.7835 236.97 15.7535C235.16 15.4335 233.69 14.5735 232.57 13.1635C231.44 11.7435 230.91 10.0535 230.98 8.07346C231.06 5.86346 231.88 3.97346 233.46 2.41346C235.07 0.853462 236.98 0.0534621 239.18 0.00346211C241.36 -0.0565379 243.18 0.663462 244.62 2.15346C246.03 3.64346 246.66 5.48346 246.52 7.69346C246.41 9.44346 245.99 11.0435 245.29 12.4935C244.63 13.9535 243.5 15.1935 241.88 16.2235C240.49 17.1135 238.97 17.5835 237.32 17.6335C235.85 17.6735 234.64 17.3635 233.72 16.7135C233.847 16.4401 233.967 16.1635 234.08 15.8835ZM229.37 52.4635C230.1 47.5935 230.58 41.5035 230.85 34.2135C231.19 26.3235 231.15 20.1535 230.68 15.7135C231.56 16.7635 232.61 17.5535 233.85 18.0635C235.13 18.5235 236.46 18.7235 237.85 18.6935C239.36 18.6435 240.77 18.3435 242.11 17.7635C243.48 17.1435 244.55 16.3235 245.3 15.3235C244.59 18.9235 244.04 23.4835 243.68 28.9635C243.14 37.6335 243.15 45.2335 243.72 51.7835C238.98 52.0435 234.197 52.2701 229.37 52.4635Z" fill="#E3623A"/>
<path d="M4 98.2635C4 96.7635 4.31 95.3735 4.96 94.1035C5.65 92.8135 6.78 92.1835 8.36 92.1735C9.82667 92.1601 11.2933 92.1435 12.76 92.1235C12.84 92.1235 13.27 92.5335 14.04 93.3435C14.83 94.1435 16 94.8935 17.56 95.5635C19.12 96.2335 20.98 96.5335 23.16 96.4735C24.37 96.4335 25.48 96.1535 26.48 95.6435C27.52 95.0735 28.33 94.3835 28.9 93.5535C29.5 92.7435 29.81 91.9335 29.79 91.1335C29.77 90.2335 29.33 89.5235 28.46 89.0035C27.64 88.4335 26.37 88.1635 24.66 88.1935C22.89 88.2235 20.85 88.5535 18.58 89.1935C16.93 89.6435 15.3 89.8835 13.72 89.8935C7.09 89.9335 3.78 85.2735 3.72 75.9535C3.71 74.6335 3.71 73.6935 3.74 73.1335C3.97 68.7735 5.16 65.5435 7.37 63.4535C9.57 61.3535 12.62 60.4735 16.52 60.7635C19.2 60.9335 21.29 61.9135 22.81 63.7035C24.33 65.4835 25.39 67.5335 25.99 69.8335C26.6 72.1335 27.09 74.8335 27.48 77.9335C27.58 78.6935 27.62 79.4135 27.64 80.1035C27.65 80.7535 27.68 81.1935 27.73 81.4735C27.77 81.6835 27.87 81.7835 28.03 81.7835C28.26 81.7835 28.39 81.6735 28.43 81.4635C28.46 81.2435 28.47 80.8735 28.46 80.3335C28.49 79.7535 28.5 79.3135 28.49 79.0535C28.42 76.0635 28.01 72.9835 27.27 69.8435C26.56 66.6935 25.48 63.7235 24.04 60.9335C27.8533 60.9935 31.6767 61.0435 35.51 61.0835C35.6833 66.1168 35.8433 71.1568 35.99 76.2035C36.11 80.8435 34.67 83.2035 31.67 83.2535C30.2167 83.2735 28.76 83.2935 27.3 83.3135C27.12 83.3235 26.73 82.9535 26.18 82.2135C25.14 80.7135 23.93 79.4935 22.57 78.5235C21.19 77.5035 19.32 76.9735 16.94 76.9635C15.52 76.9535 14.46 77.4135 13.75 78.3335C13.03 79.2535 12.69 80.6035 12.71 82.3435C12.75 85.0335 14.51 86.3635 18.02 86.3435C19.45 86.3235 21.09 86.1135 22.93 85.7235C23.98 85.4835 25.02 85.3735 26.07 85.3535C33.1 85.2335 36.63 90.9435 36.62 102.483C36.62 106.943 35.53 110.433 33.33 112.973C31.18 115.503 28.39 116.893 24.99 117.103C22.04 117.293 19.63 116.453 17.78 114.593C15.91 112.653 14.56 110.123 13.71 107.023C12.87 103.893 12.42 100.543 12.39 96.9935C12.39 96.6868 12.39 96.3835 12.39 96.0835C12.38 95.4735 12.35 95.0735 12.27 94.8535C12.22 94.5835 12.12 94.4335 11.97 94.4435C11.74 94.4435 11.6 94.6135 11.57 94.9435C11.53 95.2735 11.52 96.2835 11.53 97.9935C11.56 101.553 12.04 105.233 12.97 109.013C13.94 112.753 15.28 115.613 16.98 117.603C12.68 117.857 8.38 118.1 4.08 118.333C4.04667 111.66 4.02 104.97 4 98.2635Z" fill="#E3623A"/>
<path d="M50.16 61.1535C49.62 70.4835 49.44 78.9135 49.64 86.3835C49.81 93.5835 50.32 97.1735 51.19 97.1335C51.97 97.0935 52.33 95.5635 52.26 92.5135C52.24 91.4335 52.2 90.6535 52.15 90.1935C52.02 88.3335 51.95 87.0435 51.93 86.3135C51.8 81.2335 52.32 77.4535 53.5 74.9435C54.72 72.4535 56.44 71.0835 58.67 70.8535C59.02 70.7935 59.53 70.7635 60.2 70.7535C62.4 70.7335 64.1 71.3635 65.28 72.6735C66.5 73.9835 67.39 76.2035 67.96 79.3435C68.52 82.4835 68.88 87.0035 69.02 92.9235C69.14 97.9235 69.29 102.273 69.49 106.003C69.55 108.01 69.6067 110.017 69.66 112.023C69.68 113.233 69.68 113.953 69.65 114.213C64.3833 114.553 59.12 114.897 53.86 115.243C54.77 113.543 55.58 111.153 56.31 108.043C57.07 104.933 57.55 101.593 57.75 97.9935C57.84 96.6635 57.87 95.4335 57.84 94.3035C57.79 91.8435 57.52 89.9035 57.05 88.4735C56.62 86.9935 56.11 86.2735 55.52 86.2935C55.45 86.2935 55.29 86.3435 55.05 86.4535C54.59 86.7835 54.32 87.4735 54.23 88.5735C54.13 89.6035 54.09 91.3135 54.11 93.6835C54.13 94.6135 54.13 96.3635 54.12 98.9335C53.97 105.003 53.09 109.333 51.49 111.933C49.89 114.543 47.98 115.823 45.79 115.763C43.63 115.693 41.99 114.953 40.91 113.523C39.82 112.023 39.03 109.403 38.54 105.613C38.07 101.803 37.77 96.0635 37.61 88.3735C37.56 86.3635 37.53 83.3635 37.5 79.3535C37.44 76.4535 37.3767 73.5535 37.31 70.6535C37.19 66.6335 36.98 63.4635 36.71 61.0935C41.1833 61.1201 45.6667 61.1401 50.16 61.1535Z" fill="#E3623A"/>
<path d="M88.94 112.953C89.5 110.913 89.92 108.353 90.22 105.293C90.53 102.233 90.64 99.1735 90.58 96.0735C90.51 93.0235 90.28 90.2235 89.86 87.6735C88.54 87.7135 87.2167 87.7535 85.89 87.7935C85.9233 89.2335 85.9567 90.6701 85.99 92.1035C86.02 97.1035 85.76 101.143 85.23 104.233C84.74 107.323 83.88 109.653 82.64 111.203C81.46 112.723 79.82 113.543 77.73 113.683C75.65 113.813 73.97 112.473 72.7 109.653C71.42 106.813 70.72 103.293 70.59 99.0635C70.29 89.8435 70.93 82.2335 72.48 76.2835C73.41 72.7235 74.66 69.8135 76.24 67.5235C77.83 65.2435 79.47 63.6035 81.18 62.5835C82.89 61.5835 84.43 61.0735 85.82 61.0735C88.2 61.0635 90.49 61.8735 92.69 63.5035C94.89 65.1235 96.83 67.5235 98.53 70.7135C100.25 73.8835 101.55 77.7435 102.46 82.2835C103.9 89.8335 104.71 99.7335 104.88 111.963C99.56 112.29 94.2467 112.62 88.94 112.953ZM77.84 85.5935C81.6867 85.4468 85.5367 85.3035 89.39 85.1635C89.2567 84.7235 89.1267 84.2835 89 83.8435C88.27 81.3835 87.07 79.4735 85.41 78.1235C83.74 76.7135 82 76.0235 80.18 76.0535C78.72 76.0835 77.45 76.6135 76.37 77.6435C75.34 78.6235 74.55 79.9035 74 81.4735C73.49 83.0535 73.25 84.6935 73.3 86.4135C73.35 88.5235 73.84 90.3435 74.74 91.8635C75.64 93.3935 76.92 94.2635 78.58 94.4935C79.22 94.5635 79.69 94.5935 80.01 94.5835C82.14 94.4935 83.45 93.5735 83.97 91.8135C84.23 90.9635 84.28 89.6435 84.12 87.8535C82.04 87.9201 79.9667 87.9901 77.9 88.0635C77.88 87.2368 77.86 86.4135 77.84 85.5935Z" fill="#E3623A"/>
<path d="M118.78 61.0035C118.14 69.7635 117.9 77.6335 118.05 84.5835C118.17 91.2435 118.65 94.5535 119.53 94.5435C120.09 94.5335 120.45 93.1535 120.61 90.3835C120.79 87.6035 120.87 83.8035 120.81 78.9935C120.74 72.6935 121.17 68.1535 122.09 65.3735C123.05 62.6035 124.74 61.1235 127.14 60.9235C127.42 60.8935 127.8 60.8635 128.28 60.8635C130.61 60.8635 132.43 61.7635 133.72 63.5635C135.02 65.3735 135.97 68.4535 136.59 72.8235C137.21 77.1335 137.59 83.3135 137.72 91.3335C137.78 96.0535 137.89 100.163 138.05 103.683C138.09 105.57 138.13 107.46 138.17 109.353C138.18 110.493 138.17 111.173 138.13 111.413C132.43 111.26 126.743 111.187 121.07 111.193C121.97 109.783 122.76 107.713 123.42 104.963C124.11 102.143 124.6 99.0135 124.87 95.5635C125.24 91.0435 125.4 87.0235 125.34 83.5335C125.28 80.5935 125.07 78.4435 124.73 77.0835C124.37 75.7435 123.92 75.2235 123.37 75.5635C123.02 75.8135 122.79 76.6135 122.7 77.9635C122.64 79.2735 122.66 81.3735 122.71 84.2535C122.81 89.5735 122.73 93.5835 122.48 96.2935C121.99 101.913 120.95 105.853 119.38 108.173C117.85 110.453 116.02 111.553 113.88 111.463C111.71 111.383 110.08 110.693 109 109.363C107.92 107.993 107.14 105.573 106.65 102.103C106.21 98.6135 105.91 93.3535 105.78 86.2935C105.74 84.4435 105.72 81.6835 105.71 77.9835C105.663 75.2968 105.613 72.6068 105.56 69.9135C105.45 66.1835 105.25 63.2235 104.99 61.0135C109.577 61.0068 114.173 61.0035 118.78 61.0035Z" fill="#E3623A"/>
<path d="M165.54 93.4835C168.73 93.5635 170.97 92.9435 172.27 91.6035C172.317 97.3235 172.367 103.04 172.42 108.753C170.24 111.353 167.6 112.593 164.5 112.463C162.4 112.373 160.79 111.533 159.68 109.923C158.61 108.333 157.9 106.513 157.56 104.473C157.24 102.433 157.03 100.053 156.91 97.3435C156.897 96.5168 156.883 95.6935 156.87 94.8735C156.82 91.0835 156.8 88.6535 156.83 87.5935C156.343 87.5801 155.857 87.5701 155.37 87.5635C155.43 91.5335 155.45 94.5835 155.4 96.7135C155.19 102.123 154.46 106.003 153.2 108.373C151.94 110.743 150.01 111.863 147.38 111.763C144.89 111.663 143.08 110.903 141.98 109.473C140.92 108.073 140.21 105.723 139.85 102.443C139.53 99.1035 139.32 93.6635 139.21 86.0935C139.18 84.2635 139.16 81.5135 139.17 77.8535C139.137 75.1935 139.103 72.5268 139.07 69.8535C138.98 66.1635 138.81 63.2235 138.56 61.0335C143.193 61.0468 147.833 61.0635 152.48 61.0835C152.07 64.8935 151.77 69.0135 151.57 73.4335C151.37 77.8635 151.31 81.8435 151.36 85.3835C151.41 88.2835 151.54 90.5835 151.77 92.2735C152 93.9735 152.31 94.8335 152.71 94.8435C153.16 94.8535 153.42 93.7435 153.51 91.5235C153.6 89.2435 153.6 87.0935 153.53 85.0535C154.41 85.0735 155.293 85.0901 156.18 85.1035C157.35 85.1235 158.3 84.2835 159.04 82.5935C159.77 80.8935 160.12 78.5135 160.07 75.4335C160 71.4735 159.18 66.6935 157.63 61.1135C161.87 61.1335 166.113 61.1501 170.36 61.1635C170.63 63.5735 170.79 65.8135 170.82 67.8935C170.92 74.6335 169.83 79.5435 167.54 82.5835C165.31 85.6335 162.39 87.2835 158.81 87.5535C159.04 89.1235 159.83 90.5035 161.17 91.6935C162.56 92.8435 164.01 93.4435 165.54 93.4835Z" fill="#E3623A"/>
<path d="M204.55 88.4535C204.67 90.6835 205.04 92.2535 205.66 93.1735C206.32 94.1035 207.32 94.5135 208.69 94.3835C208.803 99.9435 208.92 105.49 209.04 111.023C208.1 111.943 207.15 112.703 206.2 113.323C205.24 113.893 204.22 114.143 203.14 114.103C201.49 114.033 200.14 113.453 199.12 112.353C198.09 111.263 197.31 109.533 196.78 107.173C196.3 104.753 196.01 101.513 195.94 97.4535C195.927 95.6801 195.917 93.9035 195.91 92.1235C195.93 88.5135 195.9 85.7235 195.83 83.7635C195.39 83.7568 194.947 83.7501 194.5 83.7435C194.53 85.3035 194.52 87.3835 194.48 89.9835C194.487 91.5835 194.493 93.1868 194.5 94.7935C194.59 99.8435 194.36 103.713 193.81 106.383C193.25 109.003 192.24 110.853 190.77 111.943C189.29 112.963 187.15 113.423 184.33 113.303C181.54 113.183 179.38 112.593 177.83 111.543C176.33 110.513 175.26 108.863 174.62 106.633C173.98 104.343 173.62 101.223 173.56 97.2335C173.48 92.2735 173.81 88.6635 174.54 86.4135C175.27 84.1635 176.65 82.6635 178.7 81.8935C180.73 81.0935 183.98 80.7235 188.44 80.7935C190.793 80.8335 193.14 80.8701 195.48 80.9035C194.85 78.9835 193.58 77.7135 191.64 77.0935C189.71 76.4235 187.37 76.0735 184.64 76.0335C183.493 76.0468 182.347 76.0568 181.2 76.0635C178.547 76.0301 175.89 75.9968 173.23 75.9635C173.157 71.0368 173.083 66.1068 173.01 61.1735C180.037 61.1935 187.05 61.2068 194.05 61.2135C194.34 61.2135 195.2 61.2135 196.65 61.2135C198.09 61.2135 199.24 61.4835 200.09 62.0235C200.92 62.5235 201.67 63.3535 202.32 64.5035C203.09 65.8635 203.58 67.7235 203.8 70.1035C204.03 72.4635 204.19 75.8835 204.29 80.3335C204.35 83.9235 204.43 86.6235 204.55 88.4535ZM184.95 92.6635C187.28 92.7235 189 92.4535 190.12 91.8235C191.23 91.1635 191.94 90.2235 192.24 89.0335C192.54 87.7935 192.69 86.0135 192.69 83.7135C191.69 83.6935 190.69 83.6735 189.69 83.6535C186.23 83.5935 183.73 83.6335 182.15 83.7435C180.63 83.8635 179.47 84.2235 178.68 84.7935C177.92 85.3235 177.56 86.2535 177.58 87.5935C177.6 88.8235 177.76 89.7935 178.1 90.4935C178.43 91.1435 179.1 91.6535 180.11 92.0235C181.16 92.3935 182.78 92.6035 184.95 92.6635Z" fill="#E3623A"/>
<path d="M235.01 95.1335C239 95.1635 242.21 94.3935 244.66 92.8435C244.933 99.0368 245.207 105.223 245.48 111.403C244.5 112.863 242.93 113.973 240.76 114.743C238.62 115.493 236.49 115.703 234.35 115.373C231.61 114.963 229.47 113.793 227.93 111.893C226.43 109.983 225.32 107.353 224.58 103.993C223.84 100.563 223.32 96.0135 223 90.3335C222.44 89.9735 221.89 89.5035 221.36 88.9235C221.43 91.6635 221.52 93.7135 221.64 95.1135C222.46 104.453 224.06 111.093 226.45 115.063C220.883 114.837 215.31 114.607 209.73 114.373C210.06 109.043 210.28 104.553 210.41 100.903C210.52 97.2535 210.54 93.4735 210.46 89.5435C210.413 88.3168 210.367 87.0968 210.32 85.8835C210.16 81.3535 210 77.6835 209.85 74.8835C209.7 72.1035 209.35 67.5135 208.83 61.1535C216.37 61.0535 223.847 60.9101 231.26 60.7235C234.17 60.6135 236.45 61.3935 238.1 63.0835C239.75 64.7735 240.9 66.7935 241.53 69.1335C242.22 71.4735 242.6 73.7635 242.68 75.9835C242.85 80.3235 242.06 83.8435 240.29 86.5135C238.55 89.1135 235.96 90.7735 232.53 91.5135C230.88 91.8135 229.62 91.9635 228.75 91.9535C227.25 91.9435 225.87 91.6635 224.63 91.1235C224.9 92.4235 225.55 93.3635 226.55 93.9535C227.6 94.5335 228.7 94.8935 229.85 95.0035C231.01 95.0635 232.73 95.1135 235.01 95.1335ZM221.82 86.0735C222.4 87.0535 223.12 87.8535 223.96 88.4835C224.81 89.0635 225.69 89.3535 226.6 89.3635C227.27 89.3635 227.95 89.1535 228.65 88.7435C229.2 88.3835 229.59 87.8135 229.84 87.0335C230.09 86.2535 230.21 85.3335 230.18 84.2935C230.15 83.3535 230 82.4135 229.74 81.4735C229.49 80.5535 229.13 79.7635 228.68 79.1535C227.23 77.0335 225.68 75.9835 224.03 76.0035C223.4 76.0035 222.74 76.1935 222.03 76.5535C221.49 76.9235 221.07 77.4835 220.77 78.2635C220.5 78.9835 220.39 79.8535 220.41 80.8835C220.45 82.8435 220.92 84.5635 221.82 86.0735Z" fill="#E3623A"/>
</svg>
