<svg width="352" height="54" viewBox="0 0 352 54" fill="none" xmlns="http://www.w3.org/2000/svg">
<path d="M17.877 0.075749C16.968 4.46925 16.5135 7.75175 16.5135 9.92325C16.5135 11.3372 16.7408 12.1957 17.1953 12.4988C17.4478 12.7008 17.8013 12.7513 18.2558 12.6502C18.7608 12.4988 19.493 12.1958 20.4525 11.7413C21.917 11.0848 23.2048 10.5798 24.3158 10.2262C25.4773 9.82225 26.7398 9.62025 28.1033 9.62025C32.8503 9.62025 36.2843 11.3625 38.4053 14.847C40.5263 18.281 41.5868 23.9118 41.5868 31.7393C41.5868 38.2033 40.5768 43.3795 38.5568 47.268C36.5368 51.1565 33.7088 53.1008 30.0728 53.1008C28.0023 53.1008 26.0833 52.3433 24.3158 50.8283C22.5988 49.2628 21.0838 47.369 19.7708 45.147C19.2658 44.339 18.887 43.5815 18.6345 42.8745C18.4325 42.117 18.3063 41.6625 18.2558 41.511C18.2053 41.3595 18.1043 41.107 17.9527 40.7535C17.8518 40.4 17.7255 40.1475 17.574 39.996C17.473 39.8445 17.3468 39.7688 17.1953 39.7688C16.5388 39.7688 16.2105 40.1223 16.2105 40.8293C16.2105 41.3848 16.4125 42.117 16.8165 43.026C17.2205 43.935 17.8012 45.1218 18.5588 46.5863C19.8213 49.1113 21.4625 51.2828 23.4825 53.1008H0C0.303 51.0808 0.53025 47.47 0.68175 42.2685C0.78275 39.289 1.01 37.067 1.3635 35.6025C1.7675 34.138 2.525 33.0523 3.636 32.3453C4.747 31.6383 6.464 31.2848 8.787 31.2848C9.999 31.2848 11.0343 31.3605 11.8927 31.512C12.8018 31.6635 13.9633 31.916 15.3773 32.2695C16.2863 32.5725 17.2205 32.7998 18.18 32.9513C22.1695 33.5573 25.3763 33.8603 27.8003 33.8603C34.6683 33.8603 38.38 32.0423 38.9355 28.4063C38.986 28.2548 39.0113 28.0023 39.0113 27.6488C39.0113 26.1338 38.3295 24.8965 36.966 23.937C35.6025 22.9775 34.0118 22.4978 32.1938 22.4978C30.6788 22.4978 29.189 22.7503 27.7245 23.2553C26.26 23.7098 24.442 24.442 22.2705 25.452C19.8465 26.563 17.7255 27.4215 15.9075 28.0275C14.14 28.583 12.2462 28.8608 10.2262 28.8608C8.45875 28.8608 6.89325 28.4568 5.52975 27.6488C4.16625 26.7903 3.10575 25.6793 2.34825 24.3158C1.59075 22.9018 1.23725 21.4373 1.28775 19.9223C1.33825 18.5083 1.3635 16.665 1.3635 14.3925C1.3635 11.7665 1.28775 9.51925 1.13625 7.65075C1.03525 5.73175 0.808 3.20675 0.4545 0.075749H17.877Z" fill="#242424"/>
<path d="M83.4664 28.3305C83.4664 32.219 83.5927 35.9813 83.8452 39.6173C84.0977 43.2533 84.5017 47.7478 85.0572 53.1008H68.0892C68.6447 47.7478 69.0487 43.2533 69.3012 39.6173C69.5537 35.9813 69.6799 32.219 69.6799 28.3305L69.6042 24.6945L69.5284 21.8918C68.2659 21.0333 66.9529 20.604 65.5894 20.604C64.4784 20.604 63.5442 20.9575 62.7867 21.6645C62.0797 22.321 61.7262 23.23 61.7262 24.3915C61.7262 24.947 61.8019 25.5278 61.9534 26.1338C63.6199 31.8403 64.4532 36.5368 64.4532 40.2233C64.4532 41.8393 64.3522 43.2785 64.1502 44.541C63.7967 47.1165 62.8372 49.187 61.2717 50.7525C59.7062 52.318 57.6357 53.1008 55.0602 53.1008H43.0917C43.6472 47.7478 44.0512 43.2533 44.3037 39.6173C44.5562 35.9813 44.6824 32.219 44.6824 28.3305L44.6067 24.6945C44.5057 20.2 44.3794 16.564 44.2279 13.7865C44.0764 11.009 43.6977 6.43875 43.0917 0.075749H62.3322C61.0697 2.90375 59.9334 6.8175 58.9234 11.817C57.9639 16.8165 57.4842 21.109 57.4842 24.6945C57.4842 26.361 57.6104 27.9013 57.8629 29.3153C58.1659 30.6788 58.5447 31.714 58.9992 32.421C59.4537 33.128 59.9082 33.3553 60.3627 33.1028C60.7162 32.9008 60.8929 32.4968 60.8929 31.8908C60.8929 31.2343 60.6909 30.1485 60.2869 28.6335L59.6052 25.3005C59.5042 24.5935 59.4537 24.0633 59.4537 23.7098C59.4537 21.9928 59.9839 20.6798 61.0444 19.7708C62.1049 18.8113 63.4937 18.3315 65.2107 18.3315C66.5742 18.3315 67.9882 18.6345 69.4527 19.2405C69.4022 15.0995 68.9477 8.71125 68.0892 0.075749H85.0572C84.4512 6.43875 84.0724 11.009 83.9209 13.7865C83.7694 16.564 83.6432 20.2 83.5422 24.6945L83.4664 28.3305Z" fill="#242424"/>
<path d="M125.716 27.3458C125.817 29.5678 126.246 31.1333 127.004 32.0423C127.812 32.9513 129.074 33.33 130.791 33.1785V49.7678C129.579 50.7273 128.367 51.5353 127.155 52.1918C125.943 52.7978 124.656 53.1008 123.292 53.1008C121.222 53.1008 119.555 52.5705 118.293 51.51C117.03 50.4495 116.096 48.7325 115.49 46.359C114.934 43.935 114.657 40.6778 114.657 36.5873L114.732 31.209C114.833 27.573 114.859 24.7703 114.808 22.8008H113.142C113.142 24.3663 113.091 26.462 112.99 29.088L112.914 33.936C112.914 39.0365 112.536 42.9503 111.778 45.6773C111.021 48.3538 109.708 50.2728 107.839 51.4343C105.971 52.5453 103.269 53.1008 99.7338 53.1008C96.2493 53.1008 93.5475 52.5958 91.6285 51.5858C89.76 50.5758 88.447 48.9345 87.6895 46.662C86.932 44.339 86.5533 41.1323 86.5533 37.0418C86.5533 31.9413 87.033 28.2295 87.9925 25.9065C88.952 23.5835 90.7195 22.018 93.295 21.21C95.8705 20.3515 99.961 19.9223 105.567 19.9223H114.429C113.672 18.0033 112.081 16.7408 109.657 16.1348C107.233 15.4782 104.304 15.15 100.87 15.15L96.5523 15.2258H86.5533V0.075749H112.914C113.268 0.075749 114.354 0.075749 116.172 0.075749C117.99 0.075749 119.429 0.3535 120.489 0.909002C121.55 1.414 122.484 2.24725 123.292 3.40875C124.252 4.77225 124.858 6.64075 125.11 9.01425C125.363 11.3878 125.514 14.7965 125.565 19.2405C125.565 22.826 125.615 25.5278 125.716 27.3458ZM100.946 32.0423C103.875 32.0423 106.046 31.714 107.46 31.0575C108.874 30.3505 109.783 29.391 110.187 28.179C110.591 26.9165 110.819 25.1238 110.869 22.8008H107.082C102.739 22.8008 99.5823 22.8765 97.6128 23.028C95.6938 23.1795 94.2293 23.5583 93.2193 24.1643C92.2598 24.7198 91.78 25.6793 91.78 27.0428C91.78 28.3053 91.982 29.29 92.386 29.997C92.79 30.6535 93.6233 31.1585 94.8858 31.512C96.1988 31.8655 98.2188 32.0423 100.946 32.0423Z" fill="#242424"/>
<path d="M150.185 0.075749C149.276 4.46925 148.822 7.75175 148.822 9.92325C148.822 11.3372 149.049 12.1957 149.503 12.4988C149.756 12.7008 150.109 12.7513 150.564 12.6502C151.069 12.4988 151.801 12.1958 152.761 11.7413C154.225 11.0848 155.513 10.5798 156.624 10.2262C157.785 9.82225 159.048 9.62025 160.411 9.62025C165.158 9.62025 168.592 11.3625 170.713 14.847C172.834 18.281 173.895 23.9118 173.895 31.7393C173.895 38.2033 172.885 43.3795 170.865 47.268C168.845 51.1565 166.017 53.1008 162.381 53.1008C160.31 53.1008 158.391 52.3433 156.624 50.8283C154.907 49.2628 153.392 47.369 152.079 45.147C151.574 44.339 151.195 43.5815 150.943 42.8745C150.741 42.117 150.614 41.6625 150.564 41.511C150.513 41.3595 150.412 41.107 150.261 40.7535C150.16 40.4 150.034 40.1475 149.882 39.996C149.781 39.8445 149.655 39.7688 149.503 39.7688C148.847 39.7688 148.519 40.1223 148.519 40.8293C148.519 41.3848 148.721 42.117 149.125 43.026C149.529 43.935 150.109 45.1218 150.867 46.5863C152.129 49.1113 153.771 51.2828 155.791 53.1008H132.308C132.611 51.0808 132.838 47.47 132.99 42.2685C133.091 39.289 133.318 37.067 133.672 35.6025C134.076 34.138 134.833 33.0523 135.944 32.3453C137.055 31.6383 138.772 31.2848 141.095 31.2848C142.307 31.2848 143.342 31.3605 144.201 31.512C145.11 31.6635 146.271 31.916 147.685 32.2695C148.594 32.5725 149.529 32.7998 150.488 32.9513C154.478 33.5573 157.684 33.8603 160.108 33.8603C166.976 33.8603 170.688 32.0423 171.244 28.4063C171.294 28.2548 171.319 28.0023 171.319 27.6488C171.319 26.1338 170.638 24.8965 169.274 23.937C167.911 22.9775 166.32 22.4978 164.502 22.4978C162.987 22.4978 161.497 22.7503 160.033 23.2553C158.568 23.7098 156.75 24.442 154.579 25.452C152.155 26.563 150.034 27.4215 148.216 28.0275C146.448 28.583 144.554 28.8608 142.534 28.8608C140.767 28.8608 139.201 28.4568 137.838 27.6488C136.474 26.7903 135.414 25.6793 134.656 24.3158C133.899 22.9018 133.545 21.4373 133.596 19.9223C133.646 18.5083 133.672 16.665 133.672 14.3925C133.672 11.7665 133.596 9.51925 133.444 7.65075C133.343 5.73175 133.116 3.20675 132.763 0.075749H150.185Z" fill="#242424"/>
<path d="M214.562 27.3458C214.663 29.5678 215.093 31.1333 215.85 32.0423C216.658 32.9513 217.921 33.33 219.638 33.1785V49.7678C218.426 50.7273 217.214 51.5353 216.002 52.1918C214.79 52.7978 213.502 53.1008 212.138 53.1008C210.068 53.1008 208.401 52.5705 207.139 51.51C205.876 50.4495 204.942 48.7325 204.336 46.359C203.781 43.935 203.503 40.6778 203.503 36.5873L203.579 31.209C203.68 27.573 203.705 24.7703 203.654 22.8008H201.988C201.988 24.3663 201.937 26.462 201.836 29.088L201.761 33.936C201.761 39.0365 201.382 42.9503 200.624 45.6773C199.867 48.3538 198.554 50.2728 196.685 51.4343C194.817 52.5453 192.115 53.1008 188.58 53.1008C185.096 53.1008 182.394 52.5958 180.475 51.5858C178.606 50.5758 177.293 48.9345 176.536 46.662C175.778 44.339 175.4 41.1323 175.4 37.0418C175.4 31.9413 175.879 28.2295 176.839 25.9065C177.798 23.5835 179.566 22.018 182.141 21.21C184.717 20.3515 188.807 19.9223 194.413 19.9223H203.276C202.518 18.0033 200.927 16.7408 198.503 16.1348C196.079 15.4782 193.15 15.15 189.716 15.15L185.399 15.2258H175.4V0.075749H201.761C202.114 0.075749 203.2 0.075749 205.018 0.075749C206.836 0.075749 208.275 0.3535 209.336 0.909002C210.396 1.414 211.33 2.24725 212.138 3.40875C213.098 4.77225 213.704 6.64075 213.956 9.01425C214.209 11.3878 214.36 14.7965 214.411 19.2405C214.411 22.826 214.461 25.5278 214.562 27.3458ZM189.792 32.0423C192.721 32.0423 194.893 31.714 196.307 31.0575C197.721 30.3505 198.63 29.391 199.034 28.179C199.438 26.9165 199.665 25.1238 199.715 22.8008H195.928C191.585 22.8008 188.429 22.8765 186.459 23.028C184.54 23.1795 183.076 23.5583 182.066 24.1643C181.106 24.7198 180.626 25.6793 180.626 27.0428C180.626 28.3053 180.828 29.29 181.232 29.997C181.636 30.6535 182.47 31.1585 183.732 31.512C185.045 31.8655 187.065 32.0423 189.792 32.0423Z" fill="#242424"/>
<path d="M223.2 53.1008C221.836 43.9603 221.154 35.9055 221.154 28.9365C221.154 19.9475 222.139 12.9785 224.109 8.0295C226.078 3.03 229.361 0.378751 233.956 0.075749C236.279 -0.075749 238.653 1.03525 241.077 3.40875C243.501 5.73175 245.495 9.01425 247.061 13.2563C248.677 17.4478 249.485 22.119 249.485 27.27C249.485 29.896 249.561 31.5878 249.712 32.3453C249.864 33.1028 250.268 33.4815 250.924 33.4815C251.48 33.4815 251.859 33.2795 252.061 32.8755C252.313 32.4715 252.465 31.8403 252.515 30.9818C252.566 30.1233 252.591 28.684 252.591 26.664C252.591 21.3615 251.732 16.6145 250.015 12.423C248.298 8.2315 245.849 4.11575 242.667 0.075749H263.196C263.953 1.89375 264.736 4.87325 265.544 9.01425C266.352 13.1048 266.882 17.2458 267.135 21.4373C267.185 22.3463 267.211 23.6593 267.211 25.3763C267.211 30.4768 266.705 35.148 265.695 39.39C264.685 43.5815 263.297 46.9145 261.529 49.389C259.762 51.8635 257.742 53.1008 255.469 53.1008C252.793 53.1008 250.773 52.0655 249.409 49.995C248.096 47.9245 247.238 45.147 246.834 41.6625C246.43 38.178 246.228 33.532 246.228 27.7245C246.228 24.1895 245.824 21.21 245.016 18.786C244.258 16.3115 243.147 15.0743 241.683 15.0743C241.531 15.0743 241.254 15.1248 240.85 15.2258C239.537 15.6803 238.88 18.1043 238.88 22.4978C238.88 26.3863 239.41 31.108 240.471 36.663C241.582 42.218 243.122 47.6973 245.091 53.1008H223.2Z" fill="#242424"/>
<path d="M284.136 28.3305C284.136 32.219 284.262 35.9813 284.515 39.6173C284.767 43.2533 285.171 47.7478 285.727 53.1008H268.759C269.314 47.7478 269.718 43.2533 269.971 39.6173C270.223 35.9813 270.349 32.219 270.349 28.3305L270.274 24.6945C270.173 20.2 270.046 16.564 269.895 13.7865C269.743 11.009 269.365 6.43875 268.759 0.075749H285.727C285.121 6.43875 284.742 11.009 284.59 13.7865C284.439 16.564 284.313 20.2 284.212 24.6945L284.136 28.3305Z" fill="#242424"/>
<path d="M308.639 31.2848C308.791 31.3353 310.053 31.8655 312.427 32.8755C314.8 33.8855 318.865 34.3905 324.622 34.3905C325.329 34.3905 326.642 34.34 328.561 34.239C330.379 34.138 332.172 33.835 333.94 33.33C335.707 32.825 337.146 32.2695 338.257 31.6635C339.368 31.007 339.924 30.4263 339.924 29.9213C339.924 29.0123 338.283 28.5578 335 28.5578C333.233 28.5578 330.91 28.7093 328.031 29.0123C326.415 29.2143 324.774 29.3153 323.107 29.3153C317.401 29.3153 313.538 28.1033 311.518 25.6793C309.498 23.2553 308.488 20.2 308.488 16.5135C308.488 16.0085 308.563 14.4683 308.715 11.8928C309.068 7.90325 310.76 4.8985 313.79 2.8785C316.82 0.858501 320.936 -0.075749 326.137 0.075749C329.672 0.176751 332.399 1.0605 334.318 2.727C336.237 4.3935 337.55 6.3125 338.257 8.484C338.964 10.6555 339.52 13.2058 339.924 16.1348C340.025 16.8418 340.076 17.5235 340.076 18.18C340.076 18.786 340.101 19.2153 340.151 19.4678C340.202 19.6698 340.328 19.7708 340.53 19.7708C340.833 19.7708 341.01 19.6698 341.06 19.4678C341.111 19.2658 341.136 18.9123 341.136 18.4072C341.186 17.8518 341.212 17.4478 341.212 17.1952C341.212 14.3168 340.782 11.3878 339.924 8.40825C339.116 5.42875 337.828 2.626 336.061 0H351.059V14.544C351.059 18.988 349.115 21.21 345.227 21.21H339.545C339.293 21.21 338.813 20.8565 338.106 20.1495C336.793 18.7355 335.253 17.574 333.485 16.665C331.718 15.7055 329.268 15.2258 326.137 15.2258C324.269 15.2258 322.855 15.655 321.895 16.5135C320.936 17.372 320.456 18.6093 320.456 20.2253C320.456 21.9928 320.986 23.4573 322.047 24.6188C323.158 25.7298 325.557 26.2853 329.243 26.2853C330.405 26.2853 331.692 26.2095 333.106 26.058C334.924 25.856 336.742 25.755 338.56 25.755C342.499 25.755 345.378 26.3357 347.196 27.4972C349.014 28.6587 350.15 30.1738 350.605 32.0423C351.059 33.9108 351.236 36.461 351.135 39.693C351.034 44.0865 349.039 47.4195 345.151 49.692C341.313 51.9645 335.808 53.1008 328.637 53.1008C325.506 53.1008 322.501 52.8483 319.623 52.3433C316.744 51.8383 314.32 51.2575 312.351 50.601C310.381 49.894 309.169 49.3385 308.715 48.9345L308.639 31.2848Z" fill="#242424"/>
</svg>
